<?xml version="1.0" standalone="no"?>
<!DOCTYPE svg PUBLIC "-//W3C//DTD SVG 20010904//EN"
 "http://www.w3.org/TR/2001/REC-SVG-20010904/DTD/svg10.dtd">
<svg version="1.0" xmlns="http://www.w3.org/2000/svg"
 width="700.000000pt" height="700.000000pt" viewBox="0 0 700.000000 700.000000"
 preserveAspectRatio="xMidYMid meet">
<metadata>
Created by potrace 1.14, written by Peter Selinger 2001-2017
</metadata>
<g transform="translate(0.000000,700.000000) scale(0.100000,-0.100000)"
fill="#000000" stroke="none">
<path d="M740 6146 c0 -4 185 -488 199 -521 32 -73 159 -406 162 -423 1 -4 10
-24 20 -44 11 -21 17 -38 13 -38 -4 0 -2 -6 4 -12 5 -7 21 -44 35 -83 27 -72
35 -94 152 -395 38 -96 80 -206 95 -245 94 -245 214 -555 225 -580 7 -16 34
-86 60 -155 25 -69 51 -134 56 -145 5 -11 33 -83 62 -160 30 -77 89 -230 131
-340 42 -110 81 -209 86 -220 5 -11 35 -87 66 -170 31 -82 62 -163 69 -180 7
-16 32 -79 55 -140 23 -60 53 -139 67 -175 43 -109 510 -1316 565 -1458 l50
-132 47 0 c303 -3 1002 -2 1005 1 2 2 27 65 56 139 29 74 68 176 87 225 20 50
51 131 69 180 19 50 38 99 44 110 8 19 117 299 166 430 12 33 74 193 137 355
63 162 156 403 207 535 50 132 96 249 100 260 13 29 63 157 100 255 18 47 38
99 46 117 8 17 14 34 14 38 0 4 6 21 14 38 8 18 28 70 46 117 17 47 36 94 41
105 4 11 31 79 58 150 28 72 184 474 347 895 162 421 311 806 330 855 19 50
39 99 43 110 5 11 24 58 41 105 18 47 38 99 46 117 8 17 14 34 14 38 0 4 6 21
14 38 8 18 45 111 81 207 37 96 70 181 72 188 4 9 -121 12 -603 12 l-609 0
-149 -397 c-82 -219 -161 -429 -176 -468 -15 -38 -42 -110 -60 -160 -18 -49
-47 -128 -66 -175 -224 -580 -929 -2478 -1004 -2705 l-33 -99 -54 159 c-30 88
-56 167 -58 175 -2 8 -60 164 -128 345 -207 548 -722 1917 -995 2643 l-256
682 -603 0 c-332 0 -603 -2 -603 -4z"/>
</g>
</svg>
